<svg width="170" viewBox="0 0 238 159" fill="none" xmlns="http://www.w3.org/2000/svg">
<path d="M101.136 23.744C102.757 23.744 104.165 23.5413 105.36 23.136C106.576 22.7307 107.568 22.176 108.336 21.472C109.125 20.7467 109.712 19.8933 110.096 18.912C110.48 17.9307 110.672 16.8533 110.672 15.68C110.672 13.3333 109.893 11.5307 108.336 10.272C106.8 9.01333 104.443 8.384 101.264 8.384H95.76V23.744H101.136ZM123.28 48H115.504C114.032 48 112.965 47.424 112.304 46.272L102.576 31.456C102.213 30.9013 101.808 30.5067 101.36 30.272C100.933 30.0373 100.293 29.92 99.44 29.92H95.76V48H87.152V1.728H101.264C104.4 1.728 107.088 2.05866 109.328 2.72C111.589 3.36 113.435 4.26666 114.864 5.44C116.315 6.61333 117.381 8.02133 118.064 9.664C118.747 11.2853 119.088 13.0773 119.088 15.04C119.088 16.5973 118.853 18.0693 118.384 19.456C117.936 20.8427 117.275 22.1013 116.4 23.232C115.547 24.3627 114.48 25.3547 113.2 26.208C111.941 27.0613 110.501 27.7333 108.88 28.224C109.435 28.544 109.947 28.928 110.416 29.376C110.885 29.8027 111.312 30.3147 111.696 30.912L123.28 48ZM137.237 8.576V21.408H153.429V28.032H137.237V41.12H157.781V48H128.597V1.728H157.781V8.576H137.237ZM190.178 30.528L184.545 15.136C184.268 14.4533 183.98 13.6427 183.682 12.704C183.383 11.7653 183.084 10.752 182.785 9.664C182.508 10.752 182.22 11.776 181.922 12.736C181.623 13.6747 181.335 14.496 181.058 15.2L175.458 30.528H190.178ZM205.378 48H198.722C197.975 48 197.367 47.8187 196.898 47.456C196.428 47.072 196.076 46.6027 195.841 46.048L192.385 36.608H173.217L169.761 46.048C169.591 46.5387 169.26 46.9867 168.769 47.392C168.279 47.7973 167.671 48 166.945 48H160.225L178.434 1.728H187.201L205.378 48ZM237.591 40.896V48H210.487V1.728H219.095V40.896H237.591Z" fill="#3D42C1"/>
<path d="M96.896 60.072C96.768 60.296 96.6293 60.4613 96.48 60.568C96.3413 60.664 96.1653 60.712 95.952 60.712C95.728 60.712 95.4827 60.632 95.216 60.472C94.96 60.3013 94.6507 60.1147 94.288 59.912C93.9253 59.7093 93.4987 59.528 93.008 59.368C92.528 59.1973 91.9573 59.112 91.296 59.112C90.6987 59.112 90.176 59.1867 89.728 59.336C89.28 59.4747 88.9013 59.672 88.592 59.928C88.2933 60.184 88.0693 60.4933 87.92 60.856C87.7707 61.208 87.696 61.5973 87.696 62.024C87.696 62.568 87.8453 63.0213 88.144 63.384C88.4533 63.7467 88.8587 64.056 89.36 64.312C89.8613 64.568 90.432 64.7973 91.072 65C91.712 65.2027 92.368 65.4213 93.04 65.656C93.712 65.88 94.368 66.1467 95.008 66.456C95.648 66.7547 96.2187 67.1387 96.72 67.608C97.2213 68.0667 97.6213 68.632 97.92 69.304C98.2293 69.976 98.384 70.792 98.384 71.752C98.384 72.7973 98.2027 73.7787 97.84 74.696C97.488 75.6027 96.9653 76.3973 96.272 77.08C95.5893 77.752 94.752 78.2853 93.76 78.68C92.768 79.064 91.632 79.256 90.352 79.256C89.616 79.256 88.8907 79.1813 88.176 79.032C87.4613 78.8933 86.7733 78.6907 86.112 78.424C85.4613 78.1573 84.848 77.8373 84.272 77.464C83.696 77.0907 83.184 76.6747 82.736 76.216L84 74.152C84.1067 74.0027 84.2453 73.88 84.416 73.784C84.5867 73.6773 84.768 73.624 84.96 73.624C85.2267 73.624 85.5147 73.736 85.824 73.96C86.1333 74.1733 86.5013 74.4133 86.928 74.68C87.3547 74.9467 87.8507 75.192 88.416 75.416C88.992 75.6293 89.68 75.736 90.48 75.736C91.7067 75.736 92.656 75.448 93.328 74.872C94 74.2853 94.336 73.448 94.336 72.36C94.336 71.752 94.1813 71.256 93.872 70.872C93.5733 70.488 93.1733 70.168 92.672 69.912C92.1707 69.6453 91.6 69.4213 90.96 69.24C90.32 69.0587 89.6693 68.8613 89.008 68.648C88.3467 68.4347 87.696 68.1787 87.056 67.88C86.416 67.5813 85.8453 67.192 85.344 66.712C84.8427 66.232 84.4373 65.6347 84.128 64.92C83.8293 64.1947 83.68 63.304 83.68 62.248C83.68 61.4053 83.8453 60.584 84.176 59.784C84.5173 58.984 85.008 58.2747 85.648 57.656C86.288 57.0373 87.0773 56.5413 88.016 56.168C88.9547 55.7947 90.032 55.608 91.248 55.608C92.6133 55.608 93.872 55.8213 95.024 56.248C96.176 56.6747 97.1573 57.272 97.968 58.04L96.896 60.072ZM134.458 59.4H127.483V79H123.179V59.4H116.202V55.864H134.458V59.4ZM163.62 70.264L160.804 62.568C160.665 62.2267 160.521 61.8213 160.372 61.352C160.223 60.8827 160.073 60.376 159.924 59.832C159.785 60.376 159.641 60.888 159.492 61.368C159.343 61.8373 159.199 62.248 159.06 62.6L156.26 70.264H163.62ZM171.22 79H167.892C167.519 79 167.215 78.9093 166.98 78.728C166.745 78.536 166.569 78.3013 166.452 78.024L164.724 73.304H155.14L153.412 78.024C153.327 78.2693 153.161 78.4933 152.916 78.696C152.671 78.8987 152.367 79 152.004 79H148.644L157.748 55.864H162.132L171.22 79ZM203.685 59.4H196.709V79H192.405V59.4H185.429V55.864H203.685V59.4ZM227.192 59.288V65.704H235.288V69.016H227.192V75.56H237.464V79H222.872V55.864H237.464V59.288H227.192Z" fill="#3D42C1"/>
<path d="M72.4641 62.263L37.795 79.7308C37.3861 79.9084 36.9458 80 36.5009 80C36.0559 80 35.6156 79.9084 35.2067 79.7308L0.535915 62.263C-0.169817 61.9058 -0.169817 61.3201 0.535915 60.9612L8.83885 56.7862C9.24836 56.6086 9.68923 56.517 10.1347 56.517C10.5803 56.517 11.0211 56.6086 11.4306 56.7862L35.2067 68.7505C35.6154 68.929 36.0558 69.0211 36.5009 69.0211C36.946 69.0211 37.3864 68.929 37.795 68.7505L61.5711 56.7862C61.9803 56.6085 62.4209 56.5169 62.8661 56.5169C63.3114 56.5169 63.752 56.6085 64.1612 56.7862L72.4641 60.9701C73.1786 61.3201 73.1786 61.9058 72.4641 62.263ZM72.4641 37.8826L64.1612 33.6987C63.752 33.521 63.3114 33.4294 62.8661 33.4294C62.4209 33.4294 61.9803 33.521 61.5711 33.6987L37.795 45.6773C37.3859 45.854 36.9457 45.9452 36.5009 45.9452C36.0561 45.9452 35.6158 45.854 35.2067 45.6773L11.4306 33.6987C11.0211 33.5211 10.5803 33.4295 10.1347 33.4295C9.68923 33.4295 9.24836 33.5211 8.83885 33.6987L0.535915 37.8826C-0.169817 38.2398 -0.169817 38.8273 0.535915 39.188L35.2067 56.6523C35.6156 56.8299 36.0559 56.9214 36.5009 56.9214C36.9458 56.9214 37.3861 56.8299 37.795 56.6523L72.4641 39.188C73.1786 38.8273 73.1786 38.2415 72.4641 37.8826ZM0.535915 17.5755L35.205 33.6987C36.0369 34.0291 36.9614 34.0291 37.7933 33.6987L72.4641 17.5755C73.1698 17.2433 73.1698 16.7023 72.4641 16.3719L37.7933 0.250475C36.962 -0.0834915 36.0362 -0.0834915 35.205 0.250475L0.535915 16.3719C-0.178638 16.7023 -0.178638 17.2433 0.535915 17.5755Z" fill="#3D42C1"/>
</svg>
